<?xml version="1.0" encoding="UTF-8"?>
<svg xmlns="http://www.w3.org/2000/svg" xmlns:xlink="http://www.w3.org/1999/xlink" version="1.1" id="Capa_1" x="0px" y="0px" viewBox="0 0 512 512" style="enable-background:new 0 0 512 512;" xml:space="preserve" width="512" height="512">
<g>
	<path style="fill:none;stroke:#000000;stroke-width:30;stroke-linecap:round;stroke-linejoin:round;stroke-miterlimit:10;" d="&#10;&#9;&#9;M496.78,497H15.22c0-66.31,32.48-108.64,84.73-133.3c14.3,41.78,53.82,73.05,102.12,73.05h108.3c48.23,0,87.7-31.18,102.05-72.87&#10;&#9;&#9;C464.45,388.56,496.78,430.85,496.78,497z"/>
	<path style="fill:none;stroke:#000000;stroke-width:30;stroke-linecap:round;stroke-linejoin:round;stroke-miterlimit:10;" d="&#10;&#9;&#9;M124.29,189.81l-21.28,89.5c-33.74-13.1-57.67-45.89-57.67-84.27V175.5h30.13C93.45,175.5,110.21,180.76,124.29,189.81z"/>
	<path style="fill:none;stroke:#000000;stroke-width:30;stroke-linecap:round;stroke-linejoin:round;stroke-miterlimit:10;" d="&#10;&#9;&#9;M467.09,175.5v19.54c0,38.38-23.92,71.18-57.67,84.28l-21.28-89.5c14.08-9.06,30.85-14.32,48.83-14.32H467.09z"/>
	<path style="fill:none;stroke:#000000;stroke-width:30;stroke-linecap:round;stroke-linejoin:round;stroke-miterlimit:10;" d="&#10;&#9;&#9;M415.28,303.97l-5.86-24.65l-21.28-89.5l-20.65-86.89c-6.13-25.77-20.7-47.76-40.36-63.3C307.46,24.1,282.71,15,256.22,15&#10;&#9;&#9;c-52.98,0-99.02,36.38-111.28,87.93l-20.65,86.88l-21.28,89.5l-5.86,24.66c-4.93,20.77-3.53,41.27,2.8,59.73&#10;&#9;&#9;c14.3,41.78,53.82,73.05,102.12,73.05h108.3c48.23,0,87.7-31.18,102.05-72.87C418.81,345.38,420.23,324.8,415.28,303.97z"/>
	
		<polyline style="fill:none;stroke:#000000;stroke-width:30;stroke-linecap:round;stroke-linejoin:round;stroke-miterlimit:10;" points="&#10;&#9;&#9;233.367,264.603 255.915,285.807 277.04,264.603 &#9;"/>
	<path style="fill:none;stroke:#000000;stroke-width:30;stroke-linecap:round;stroke-linejoin:round;stroke-miterlimit:10;" d="&#10;&#9;&#9;M185.843,361.154l4.042-3.082c10.433-7.956,23.19-12.264,36.309-12.264h0h60.048h0c13.12,0,25.877,4.309,36.309,12.264l4.042,3.082&#10;&#9;&#9;"/>
	<g>
		<path style="fill:none;stroke:#000000;stroke-width:30;stroke-linecap:round;stroke-linejoin:round;stroke-miterlimit:10;" d="&#10;&#9;&#9;&#9;M226.194,345.807C211.369,327.462,206.718,316,206.718,316"/>
		<path style="fill:none;stroke:#000000;stroke-width:30;stroke-linecap:round;stroke-linejoin:round;stroke-miterlimit:10;" d="&#10;&#9;&#9;&#9;M286.242,345.807C301.067,327.462,305.718,316,305.718,316"/>
	</g>
	<path style="fill:none;stroke:#000000;stroke-width:30;stroke-linecap:round;stroke-linejoin:round;stroke-miterlimit:10;" d="&#10;&#9;&#9;M206.093,145.5l-29.021-12.953c-26.387-11.777-50.562-27.985-71.479-47.922l0,0"/>
	<path style="fill:none;stroke:#000000;stroke-width:30;stroke-linecap:round;stroke-linejoin:round;stroke-miterlimit:10;" d="&#10;&#9;&#9;M306.343,145.5l29.021-12.953c26.387-11.777,50.562-27.985,71.479-47.922l0,0"/>
	
		<polyline style="fill:none;stroke:#000000;stroke-width:30;stroke-linecap:round;stroke-linejoin:round;stroke-miterlimit:10;" points="&#10;&#9;&#9;177.33,189.875 207.772,199.875 207.772,218.125 &#9;"/>
	
		<polyline style="fill:none;stroke:#000000;stroke-width:30;stroke-linecap:round;stroke-linejoin:round;stroke-miterlimit:10;" points="&#10;&#9;&#9;334.67,189.875 304.228,199.875 304.228,218.125 &#9;"/>
</g>















</svg>
